<svg width="47" height="47" viewBox="0 0 47 47" fill="none" xmlns="http://www.w3.org/2000/svg">
<path fill-rule="evenodd" clip-rule="evenodd" d="M23.4999 1.87378C11.2553 1.87378 1.32617 11.8007 1.32617 24.0475C1.32617 33.8448 7.67962 42.1561 16.4899 45.0884C17.5977 45.2941 18.0046 44.6074 18.0046 44.0218C18.0046 43.493 17.984 41.7463 17.9745 39.8935C11.8057 41.2348 10.504 37.2773 10.504 37.2773C9.49536 34.7143 8.04203 34.0328 8.04203 34.0328C6.02984 32.6566 8.19368 32.6852 8.19368 32.6852C10.4199 32.8413 11.5927 34.9702 11.5927 34.9702C13.5704 38.3594 16.78 37.3797 18.0453 36.8135C18.2443 35.3804 18.819 34.4018 19.4531 33.8481C14.528 33.2881 9.35032 31.3865 9.35032 22.8901C9.35032 20.4693 10.2169 18.4912 11.6353 16.938C11.4047 16.3799 10.6458 14.1246 11.8498 11.0704C11.8498 11.0704 13.7114 10.4744 17.9487 13.3432C19.7179 12.8516 21.6151 12.6045 23.4999 12.596C25.3836 12.6045 27.2819 12.8509 29.0543 13.3425C33.2865 10.4737 35.146 11.0696 35.146 11.0696C36.3529 14.1235 35.5939 16.3792 35.3637 16.9373C36.7855 18.4905 37.6458 20.4685 37.6458 22.8894C37.6458 31.4059 32.4585 33.2808 27.521 33.8301C28.3167 34.5182 29.0253 35.868 29.0253 37.9364C29.0253 40.9032 28.9996 43.2911 28.9996 44.0214C28.9996 44.6115 29.3991 45.3029 30.5227 45.0851C39.3279 42.1498 45.674 33.8411 45.674 24.0475C45.6736 11.8014 35.7456 1.87378 23.4999 1.87378Z" fill="black"/>
<path d="M9.72437 33.7101C9.67553 33.8202 9.50222 33.8533 9.34433 33.778C9.18276 33.706 9.0928 33.5559 9.14494 33.4453C9.19268 33.3315 9.36636 33.3003 9.52682 33.3763C9.68838 33.4486 9.78018 33.6003 9.724 33.7104L9.72437 33.7101ZM10.6225 34.7121C10.5171 34.8102 10.3104 34.7646 10.1701 34.6093C10.0247 34.4551 9.99755 34.2484 10.1051 34.1489C10.2146 34.0512 10.415 34.0975 10.5605 34.2517C10.7051 34.4081 10.7338 34.613 10.6229 34.7125L10.6225 34.7121ZM11.4971 35.9888C11.3613 36.0836 11.1388 35.9951 11.0014 35.7979C10.8656 35.6003 10.8656 35.3635 11.0051 35.2691C11.1421 35.1744 11.3613 35.26 11.5008 35.4553C11.6359 35.6554 11.6359 35.8926 11.4971 35.9888ZM12.6945 37.223C12.5734 37.357 12.3141 37.321 12.1247 37.1385C11.9312 36.9597 11.8772 36.7052 11.9987 36.5716C12.1221 36.4372 12.3824 36.4746 12.573 36.656C12.7665 36.8345 12.8249 37.0893 12.6953 37.2226L12.6945 37.223ZM14.3469 37.9393C14.2929 38.113 14.044 38.192 13.7924 38.1178C13.5416 38.0418 13.3775 37.8387 13.4289 37.6632C13.4803 37.4881 13.7311 37.4062 13.9841 37.4851C14.2349 37.5608 14.399 37.7627 14.3469 37.9393ZM16.1619 38.0719C16.1681 38.2547 15.9552 38.406 15.6919 38.4097C15.4264 38.4159 15.2116 38.2676 15.209 38.0877C15.209 37.903 15.4176 37.7535 15.6827 37.7484C15.946 37.7436 16.1623 37.8905 16.1623 38.0715L16.1619 38.0719ZM17.8502 37.7847C17.8818 37.9628 17.6986 38.1461 17.4368 38.1949C17.1797 38.2426 16.9411 38.1317 16.908 37.9551C16.8764 37.7723 17.063 37.589 17.32 37.5417C17.5822 37.4965 17.8172 37.6037 17.8502 37.7847Z" fill="black"/>
</svg>
