<svg width="42" height="42" viewBox="0 0 42 42" fill="none" xmlns="http://www.w3.org/2000/svg">
<path d="M12.2501 0.166748H29.7501C36.4167 0.166748 41.8334 5.58341 41.8334 12.2501V29.7501C41.8334 32.9548 40.5604 36.0282 38.2943 38.2943C36.0282 40.5604 32.9548 41.8334 29.7501 41.8334H12.2501C5.58341 41.8334 0.166748 36.4167 0.166748 29.7501V12.2501C0.166748 9.04538 1.43981 5.97194 3.70587 3.70587C5.97194 1.43981 9.04538 0.166748 12.2501 0.166748ZM11.8334 4.33341C9.84429 4.33341 7.93664 5.12359 6.53011 6.53011C5.12359 7.93664 4.33341 9.84429 4.33341 11.8334V30.1667C4.33341 34.3126 7.68758 37.6667 11.8334 37.6667H30.1667C32.1559 37.6667 34.0635 36.8766 35.4701 35.4701C36.8766 34.0635 37.6667 32.1559 37.6667 30.1667V11.8334C37.6667 7.68758 34.3126 4.33341 30.1667 4.33341H11.8334ZM31.9376 7.45841C32.6282 7.45841 33.2906 7.73278 33.779 8.22116C34.2674 8.70953 34.5417 9.37191 34.5417 10.0626C34.5417 10.7532 34.2674 11.4156 33.779 11.904C33.2906 12.3924 32.6282 12.6667 31.9376 12.6667C31.2469 12.6667 30.5845 12.3924 30.0962 11.904C29.6078 11.4156 29.3334 10.7532 29.3334 10.0626C29.3334 9.37191 29.6078 8.70953 30.0962 8.22116C30.5845 7.73278 31.2469 7.45841 31.9376 7.45841ZM21.0001 10.5834C23.7628 10.5834 26.4123 11.6809 28.3658 13.6344C30.3193 15.5879 31.4167 18.2374 31.4167 21.0001C31.4167 23.7628 30.3193 26.4123 28.3658 28.3658C26.4123 30.3193 23.7628 31.4167 21.0001 31.4167C18.2374 31.4167 15.5879 30.3193 13.6344 28.3658C11.6809 26.4123 10.5834 23.7628 10.5834 21.0001C10.5834 18.2374 11.6809 15.5879 13.6344 13.6344C15.5879 11.6809 18.2374 10.5834 21.0001 10.5834ZM21.0001 14.7501C19.3425 14.7501 17.7528 15.4086 16.5807 16.5807C15.4086 17.7528 14.7501 19.3425 14.7501 21.0001C14.7501 22.6577 15.4086 24.2474 16.5807 25.4195C17.7528 26.5916 19.3425 27.2501 21.0001 27.2501C22.6577 27.2501 24.2474 26.5916 25.4195 25.4195C26.5916 24.2474 27.2501 22.6577 27.2501 21.0001C27.2501 19.3425 26.5916 17.7528 25.4195 16.5807C24.2474 15.4086 22.6577 14.7501 21.0001 14.7501Z" fill="#0086C5"/>
</svg>
