<svg width="45" height="45" viewBox="0 0 45 45" fill="none" xmlns="http://www.w3.org/2000/svg">
<path d="M22.5 0C10.0734 0 0 10.0734 0 22.5C0 34.9266 10.0734 45 22.5 45C34.9266 45 45 34.9266 45 22.5C45 10.0734 34.9266 0 22.5 0ZM16.9922 29.5477C16.9922 30.8058 15.9722 31.8258 14.7141 31.8258V31.8258C13.4559 31.8258 12.4359 30.8058 12.4359 29.5477V19.4414C12.4359 18.1832 13.4559 17.1633 14.7141 17.1633V17.1633C15.9722 17.1633 16.9922 18.1832 16.9922 19.4414V29.5477ZM14.6859 15.3633C13.2469 15.3633 12.3164 14.3437 12.3164 13.0828C12.3164 11.7961 13.275 10.807 14.7445 10.807C16.2141 10.807 17.1141 11.7961 17.1422 13.0828C17.1422 14.3437 16.2141 15.3633 14.6859 15.3633ZM33.6328 29.5477C33.6328 30.8058 32.6129 31.8258 31.3547 31.8258V31.8258C30.0965 31.8258 29.0766 30.8058 29.0766 29.5477V23.7C29.0766 21.8086 28.4156 20.5242 26.768 20.5242C25.5094 20.5242 24.7617 21.3938 24.4313 22.2305C24.3094 22.5281 24.2789 22.95 24.2789 23.3695V29.5441C24.2789 30.803 23.2584 31.8234 21.9996 31.8234V31.8234C20.7408 31.8234 19.7203 30.803 19.7203 29.5441V21.8391C19.7203 20.9151 19.7054 20.0675 19.6828 19.2852C19.6493 18.1278 20.5689 17.1609 21.7268 17.1609H22.5357C23.1172 17.1609 23.6044 17.6008 23.6637 18.1793L23.7622 19.1413C23.7655 19.1733 23.7925 19.1977 23.8247 19.1977V19.1977C23.8463 19.1977 23.866 19.187 23.8777 19.1688C24.4889 18.2133 25.9535 16.8305 28.3875 16.8305C31.3852 16.8305 33.6328 18.8391 33.6328 23.1563V29.5477Z" fill="black"/>
</svg>
