<svg width="42" height="42" viewBox="0 0 42 42" fill="none" xmlns="http://www.w3.org/2000/svg">
<path d="M12.25 0.166504H29.75C36.4166 0.166504 41.8333 5.58317 41.8333 12.2498V29.7498C41.8333 32.9545 40.5602 36.028 38.2942 38.294C36.0281 40.5601 32.9547 41.8332 29.75 41.8332H12.25C5.58329 41.8332 0.166626 36.4165 0.166626 29.7498V12.2498C0.166626 9.04514 1.43969 5.9717 3.70575 3.70563C5.97182 1.43957 9.04526 0.166504 12.25 0.166504ZM11.8333 4.33317C9.84417 4.33317 7.93652 5.12335 6.52999 6.52987C5.12347 7.93639 4.33329 9.84405 4.33329 11.8332V30.1665C4.33329 34.3123 7.68746 37.6665 11.8333 37.6665H30.1666C32.1558 37.6665 34.0634 36.8763 35.4699 35.4698C36.8765 34.0633 37.6666 32.1556 37.6666 30.1665V11.8332C37.6666 7.68734 34.3125 4.33317 30.1666 4.33317H11.8333ZM31.9375 7.45817C32.6281 7.45817 33.2905 7.73254 33.7789 8.22091C34.2673 8.70929 34.5416 9.37167 34.5416 10.0623C34.5416 10.753 34.2673 11.4154 33.7789 11.9038C33.2905 12.3921 32.6281 12.6665 31.9375 12.6665C31.2468 12.6665 30.5844 12.3921 30.096 11.9038C29.6077 11.4154 29.3333 10.753 29.3333 10.0623C29.3333 9.37167 29.6077 8.70929 30.096 8.22091C30.5844 7.73254 31.2468 7.45817 31.9375 7.45817ZM21 10.5832C23.7626 10.5832 26.4122 11.6806 28.3657 13.6341C30.3192 15.5876 31.4166 18.2372 31.4166 20.9998C31.4166 23.7625 30.3192 26.412 28.3657 28.3655C26.4122 30.319 23.7626 31.4165 21 31.4165C18.2373 31.4165 15.5878 30.319 13.6343 28.3655C11.6808 26.412 10.5833 23.7625 10.5833 20.9998C10.5833 18.2372 11.6808 15.5876 13.6343 13.6341C15.5878 11.6806 18.2373 10.5832 21 10.5832ZM21 14.7498C19.3424 14.7498 17.7526 15.4083 16.5805 16.5804C15.4084 17.7525 14.75 19.3422 14.75 20.9998C14.75 22.6574 15.4084 24.2472 16.5805 25.4193C17.7526 26.5914 19.3424 27.2498 21 27.2498C22.6576 27.2498 24.2473 26.5914 25.4194 25.4193C26.5915 24.2472 27.25 22.6574 27.25 20.9998C27.25 19.3422 26.5915 17.7525 25.4194 16.5804C24.2473 15.4083 22.6576 14.7498 21 14.7498Z" fill="white"/>
</svg>
