<svg width="141" height="34" viewBox="0 0 141 34" fill="none" xmlns="http://www.w3.org/2000/svg">
<g clip-path="url(#clip0_141_254)">
<path d="M40.2057 0.473145H42.9928V33.7819H40.2057V0.473145Z" fill="black"/>
<path d="M40.2057 0.473145H42.9928V33.7819H40.2057V0.473145Z" fill="white"/>
<path d="M10.6539 16.4136H24.2597V18.6976H10.6539V16.4136Z" fill="black"/>
<path d="M10.6539 16.4136H24.2597V18.6976H10.6539V16.4136Z" fill="white"/>
<path d="M0.245544 0.473145V33.7821H3.03261V18.6978H3.03629V16.4135H3.03286V2.75694H31.9339V0.473145" fill="black"/>
<path d="M0.245544 0.473145V33.7821H3.03261V18.6978H3.03629V16.4135H3.03286V2.75694H31.9339V0.473145H0.245544Z" fill="white"/>
<path d="M126.818 0.344238H104.608V33.6532H107.395V21.2335H107.415V18.9501H107.395V2.62869H126.604C133.358 2.62869 137.967 5.38835 137.967 10.6701V10.7655C137.967 15.7137 133.25 18.9499 126.282 18.9499H117.491V21.2335H126.121C133.947 21.2335 140.755 17.6172 140.755 10.6225V10.5275C140.755 4.10356 135.072 0.344456 126.817 0.344456" fill="black"/>
<path d="M126.818 0.344238H104.608V33.6532H107.395V21.2335H107.415V18.9501H107.395V2.62869H126.604C133.358 2.62869 137.967 5.38835 137.967 10.6701V10.7655C137.967 15.7137 133.25 18.9499 126.282 18.9499H117.491V21.2335H126.121C133.947 21.2335 140.755 17.6172 140.755 10.6225V10.5275C140.755 4.10356 135.072 0.344456 126.817 0.344456" fill="white"/>
<path d="M88.3925 18.9501L75.3804 0.217773H72.7002L49.5228 33.7646H52.4174L73.9871 2.93034L85.2302 18.9499" fill="black"/>
<path d="M88.3925 18.9501L75.3804 0.217773H72.7002L49.5228 33.7646H52.4174L73.9871 2.93034L85.2302 18.9499L88.3925 18.9501Z" fill="white"/>
<path d="M92.6737 25.1138H89.5559L95.6278 33.7646H98.6825" fill="black"/>
<path d="M92.6737 25.1138H89.5559L95.6278 33.7646H98.6825L92.6737 25.1138Z" fill="white"/>
</g>
<defs>
<clipPath id="clip0_141_254">
<rect width="141" height="34" fill="white"/>
</clipPath>
</defs>
</svg>
