<svg width="141" height="34" viewBox="0 0 141 34" fill="none" xmlns="http://www.w3.org/2000/svg">
<g clip-path="url(#clip0_327_299)">
<path d="M43.4954 0.298828H40.73V33.525H43.4954V0.298828Z" fill="#0086C5" stroke="#0086C5" stroke-width="0.27027"/>
<path d="M24.9901 16.1945H11.5532V18.4779H24.9901V16.1945Z" fill="#0086C5" stroke="#0086C5" stroke-width="0.27027"/>
<path d="M1.27026 0.298828V33.525H4.03564V2.56068H32.557V0.298828H1.27026Z" fill="#0086C5" stroke="#0086C5" stroke-width="0.27027"/>
<path d="M126.271 0.1698H104.346V33.396H107.112V2.4476H126.078C132.748 2.4476 137.307 5.20942 137.307 10.4711V10.5577C137.307 15.4936 132.651 18.7122 125.763 18.7122H117.081V20.99H125.592C133.329 20.99 140.046 17.3808 140.046 10.3982V10.3242C140.041 3.90994 134.444 0.1698 126.271 0.1698Z" fill="#0086C5" stroke="#0086C5" stroke-width="0.27027"/>
<path d="M88.3394 18.7165L75.4792 0.0385742H72.8358L49.9468 33.5039H52.8087L74.1035 2.73548L85.2108 18.7165H88.3394Z" fill="#0086C5" stroke="#0086C5" stroke-width="0.27027"/>
<path d="M92.5594 24.8719H89.479L95.4696 33.5048H98.4979L92.5594 24.8719Z" fill="#0086C5" stroke="#0086C5" stroke-width="0.27027"/>
</g>
<defs>
<clipPath id="clip0_327_299">
<rect width="141" height="34" fill="white"/>
</clipPath>
</defs>
</svg>
