<svg width="139" height="59" viewBox="0 0 139 59" fill="none" xmlns="http://www.w3.org/2000/svg">
<g clip-path="url(#clip0_327_233)">
<path fill-rule="evenodd" clip-rule="evenodd" d="M40.0514 8.94375C30.2822 0.567404 18.377 -2.27388 10.2805 1.91041C10.1234 6.28878 12.4479 10.5274 15.7776 13.6482C16.1545 14.0053 16.5472 14.3391 16.9477 14.6651C18.8246 16.3497 21.1726 17.6384 23.5207 18.4069C22.4763 15.3172 21.958 11.7074 24.8243 9.39401C25.8688 8.88165 27.1724 8.88165 27.9498 9.65019C30.5571 12.2275 28.7273 15.5734 27.6828 18.4069C28.4681 17.8868 29.5126 17.8868 30.4 17.1804C30.8162 16.9319 31.2246 16.668 31.6172 16.3963C33.6747 15.0533 35.5045 13.5084 37.028 11.8238C37.884 10.8768 38.9991 9.92966 40.0436 8.92823" fill="#0086C5"/>
<path fill-rule="evenodd" clip-rule="evenodd" d="M15.1416 38.7617C14.4113 39.3982 13.7281 40.0581 13.0605 40.7257C16.3196 42.9848 19.7356 44.6461 23.0968 45.6863C21.9895 43.1789 20.6545 40.7723 18.7305 38.6607C18.3928 38.4279 18.0394 38.2571 17.6624 38.1717C17.2855 38.0785 16.8928 38.0785 16.4688 38.1717C16.0447 38.2648 15.6049 38.4589 15.1338 38.7694" fill="#0086C5"/>
<path fill-rule="evenodd" clip-rule="evenodd" d="M10.1784 36.8676C11.2464 38.0708 12.3615 39.1965 13.5002 40.2523C15.3771 36.7511 16.9948 33.1258 17.9529 29.1976C18.0157 28.8794 18.0629 28.5533 18.11 28.2273C18.1964 27.5752 18.2513 26.9153 18.267 26.2554C18.267 25.6965 18.2513 25.1376 18.2042 24.5786C17.9058 20.6583 16.4923 16.769 13.9714 13.3532C13.7123 12.8952 13.4453 12.4372 13.1783 11.9792C10.6731 7.78712 7.6497 3.83571 4.42995 0.350098C-3.17967 8.57118 -0.808043 24.4777 10.1784 36.8676Z" fill="#0086C5"/>
<path fill-rule="evenodd" clip-rule="evenodd" d="M25.8687 50.7556C25.9865 51.2835 26.1122 51.8114 26.23 52.3315C26.3242 52.7275 26.4106 53.1234 26.497 53.5193C27.031 55.0641 27.298 56.7875 27.6671 58.4178C33.1485 59.1009 38.2294 57.9365 41.9832 54.6838C50.9907 46.8741 48.9489 30.0127 37.4206 17.0174C36.5096 15.9926 35.5672 15.0222 34.6013 14.1062C32.3082 16.4817 30.2429 19.1444 28.2168 21.7451C27.8948 22.1565 27.5807 22.5679 27.2587 22.9716C26.9603 23.3986 26.6619 23.8411 26.3713 24.2913C26.0729 24.7416 25.7902 25.1996 25.5075 25.6732C19.5706 33.444 24.2588 42.4647 25.8609 50.7556" fill="#0086C5"/>
<path d="M52.6163 5.54358V14.0208H51.988V5.54358H52.6163Z" fill="#0086C5"/>
<path d="M54.8545 14.0208V5.54358H55.4435L59.3229 10.7604C60.1082 11.8161 60.6186 12.4838 61.0663 13.2368L61.0898 13.2135C61.0034 12.2353 60.9877 11.2261 60.9877 9.92195V5.54358H61.6003V14.0208H61.027L57.2732 8.97486C56.5508 7.99671 55.8832 7.10396 55.4278 6.35094L55.3885 6.37423C55.4513 7.32908 55.467 8.23736 55.467 9.49498V14.0208H54.8545Z" fill="#0086C5"/>
<path d="M63.54 13.0271C64.0976 13.4075 64.8358 13.6559 65.6682 13.6559C67.0582 13.6559 67.8985 12.9262 67.8985 11.8782C67.8985 10.9078 67.4037 10.3566 65.9666 9.90634C64.2468 9.36292 63.5636 8.67201 63.5636 7.56965C63.5636 6.32756 64.6473 5.396 66.2258 5.396C67.1289 5.396 67.8042 5.61336 68.1341 5.82296L67.8906 6.33533C67.6472 6.1723 67.0346 5.89283 66.1944 5.89283C64.6552 5.89283 64.1761 6.80887 64.1761 7.4765C64.1761 8.38478 64.7258 8.89714 66.108 9.33963C67.6707 9.84423 68.511 10.4498 68.511 11.8161C68.511 12.9883 67.6472 14.1683 65.5975 14.1683C64.7808 14.1683 63.8306 13.9198 63.3044 13.5395L63.5479 13.0271H63.54Z" fill="#0086C5"/>
<path d="M72.0763 6.06363H68.8801V5.55127H75.8929V6.06363H72.6967V14.0208H72.0763V6.06363Z" fill="#0086C5"/>
<path d="M77.3692 5.54358V14.0208H76.7488V5.54358H77.3692Z" fill="#0086C5"/>
<path d="M81.4213 6.06363H78.2329V5.55127H85.2378V6.06363H82.0416V14.0208H81.4134V6.06363H81.4213Z" fill="#0086C5"/>
<path d="M86.7144 5.54353V10.4343C86.7144 12.7399 87.8688 13.6559 89.298 13.6559C90.8922 13.6559 92.0231 12.6778 92.0231 10.4343V5.54353H92.6434V10.3799C92.6434 13.1125 91.0807 14.1683 89.2588 14.1683C87.5939 14.1683 86.094 13.2134 86.094 10.442V5.53577H86.7222L86.7144 5.54353Z" fill="#0086C5"/>
<path d="M96.7035 6.06363H93.5073V5.55127H100.512V6.06363H97.3239V14.0208H96.6957V6.06363H96.7035Z" fill="#0086C5"/>
<path d="M104.745 14.1683C102.303 14.1683 100.481 12.3673 100.481 9.89088C100.481 7.22815 102.389 5.38831 104.831 5.38831C107.274 5.38831 109.096 7.22815 109.096 9.66575C109.096 12.5924 106.983 14.1683 104.753 14.1683H104.745ZM104.761 13.6715C107.022 13.6715 108.444 11.9714 108.444 9.7201C108.444 7.88025 107.234 5.90067 104.808 5.90067C102.381 5.90067 101.133 7.78709 101.133 9.87536C101.133 11.9636 102.515 13.6715 104.753 13.6715H104.761Z" fill="#0086C5"/>
<path d="M113.745 5.65995C114.506 5.55903 115.362 5.47363 116.313 5.47363C118.135 5.47363 119.517 5.96271 120.318 6.83217C121.032 7.60071 121.346 8.50123 121.346 9.59582C121.346 10.5662 121.056 11.7462 120.161 12.6933C119.336 13.5627 117.883 14.0984 115.967 14.0984C115.19 14.0984 114.475 14.0829 113.737 14.0208V5.65995H113.745ZM114.373 13.5084C114.781 13.5705 115.386 13.586 116.077 13.586C119.336 13.586 120.718 11.8161 120.718 9.61135C120.742 7.53861 119.399 5.986 116.266 5.986C115.441 5.986 114.813 6.06363 114.373 6.14902V13.5084Z" fill="#0086C5"/>
<path d="M127.393 9.8055H123.576V13.5007H127.825V14.0131H122.948V5.54358H127.605V6.05594H123.569V9.28538H127.385V9.8055H127.393Z" fill="#0086C5"/>
<path d="M57.5009 22.1565C57.4381 21.2327 57.3517 20.0372 57.3517 19.3695H57.336C57.0847 20.0372 56.7941 20.7514 56.3936 21.6907L54.9408 25.0832H54.5953L53.2367 21.7373C52.8441 20.7669 52.5535 20.0294 52.3493 19.3695H52.3336C52.3022 20.0915 52.2551 21.2249 52.1765 22.2419L51.9567 25.0832H51.509L52.0116 18.8649H52.5299L54.0377 22.5679C54.3597 23.3442 54.5953 23.9886 54.7838 24.5475H54.7995C54.9644 24.0196 55.2235 23.3986 55.5769 22.5757L57.1632 18.8572H57.7051L58.1527 25.0754H57.7051L57.5088 22.141L57.5009 22.1565Z" fill="#0086C5"/>
<path d="M62.8332 21.9935H60.0297V24.7028H63.1474V25.0832H59.5742V18.865H62.9903V19.2454H60.0297V21.6209H62.8332V21.9935Z" fill="#0086C5"/>
<path d="M64.3411 18.9581C64.8986 18.8882 65.5269 18.8184 66.2258 18.8184C67.5608 18.8184 68.5739 19.1755 69.1628 19.812C69.689 20.3787 69.9167 21.0386 69.9167 21.846C69.9167 22.5524 69.7047 23.4219 69.0529 24.1128C68.4482 24.7493 67.3802 25.1453 65.9745 25.1453C65.4091 25.1453 64.8829 25.1375 64.3411 25.0909V18.9581ZM64.7965 24.7105C65.095 24.7571 65.5426 24.7649 66.0452 24.7649C68.4325 24.7649 69.4534 23.4607 69.4534 21.8537C69.4691 20.3322 68.4796 19.1987 66.1865 19.1987C65.5818 19.1987 65.1264 19.2531 64.7965 19.3152V24.7105Z" fill="#0086C5"/>
<path d="M71.55 18.8727V25.0909H71.0945V18.8727H71.55Z" fill="#0086C5"/>
<path d="M78.0131 24.8347C77.6597 25.0133 76.9451 25.1918 76.0499 25.1918C74.3536 25.1918 72.728 24.1671 72.728 22.0012C72.728 20.3787 73.9374 18.7562 76.3012 18.7562C77.2514 18.7562 77.7854 18.9658 77.9974 19.0667L77.8482 19.4471C77.4713 19.2608 76.9137 19.1289 76.3247 19.1289C74.2829 19.1289 73.1992 20.3554 73.1992 22.0322C73.1992 23.5616 74.2358 24.7959 76.2148 24.7959C76.8352 24.7959 77.4477 24.6794 77.8796 24.4621L78.021 24.8192L78.0131 24.8347Z" fill="#0086C5"/>
<path d="M79.623 18.8727V25.0909H79.1675V18.8727H79.623Z" fill="#0086C5"/>
<path d="M81.2644 25.0832V18.865H81.6963L84.5391 22.6922C85.1203 23.4685 85.4893 23.9576 85.8192 24.5087L85.8349 24.4932C85.7721 23.7712 85.7563 23.0338 85.7563 22.0789V18.8728H86.204V25.091H85.7878L83.0392 21.3958C82.5052 20.6738 82.0261 20.0217 81.6885 19.4705L81.6649 19.486C81.712 20.1847 81.7199 20.8523 81.7199 21.7761V25.0987H81.2723L81.2644 25.0832Z" fill="#0086C5"/>
<path d="M88.6539 22.9017L87.7822 25.0909H87.311L89.8476 18.8727H90.2952L92.816 25.0909H92.337L91.4496 22.9017H88.6539ZM91.3004 22.5213L90.413 20.3321C90.2481 19.9207 90.1617 19.649 90.0675 19.3462H90.0518C89.9575 19.6568 89.8554 19.9362 89.7062 20.3088L88.811 22.5213H91.3004Z" fill="#0086C5"/>
<path d="M96.0594 18.8727H99.4754V19.2531H96.5148V21.6984H99.2163V22.0788H96.5148V25.0987H96.0515V18.8804L96.0594 18.8727Z" fill="#0086C5"/>
<path d="M102.287 17.4753L101.054 18.5389H100.677L101.572 17.4753H102.279H102.287ZM101.274 18.8727V25.0909H100.818V18.8727H101.274Z" fill="#0086C5"/>
<path d="M102.695 24.3612C103.104 24.6406 103.646 24.8192 104.25 24.8192C105.271 24.8192 105.884 24.2835 105.884 23.515C105.884 22.8085 105.522 22.4049 104.462 22.0633C103.206 21.6674 102.703 21.1628 102.703 20.3477C102.703 19.4316 103.496 18.7562 104.651 18.7562C105.31 18.7562 105.805 18.9115 106.049 19.0667L105.868 19.4471C105.687 19.3307 105.248 19.1211 104.627 19.1211C103.496 19.1211 103.143 19.7965 103.143 20.2855C103.143 20.9532 103.543 21.3258 104.564 21.6518C105.711 22.0167 106.323 22.467 106.323 23.4684C106.323 24.3301 105.687 25.1918 104.187 25.1918C103.591 25.1918 102.892 25.0133 102.507 24.7338L102.687 24.3534L102.695 24.3612Z" fill="#0086C5"/>
<path d="M108.082 18.8727V25.0909H107.627V18.8727H108.082Z" fill="#0086C5"/>
<path d="M114.546 24.8347C114.192 25.0133 113.485 25.1918 112.582 25.1918C110.886 25.1918 109.26 24.1671 109.26 22.0012C109.26 20.3787 110.478 18.7562 112.834 18.7562C113.784 18.7562 114.318 18.9658 114.53 19.0667L114.381 19.4471C114.004 19.2608 113.446 19.1289 112.857 19.1289C110.815 19.1289 109.732 20.3554 109.732 22.0322C109.732 23.5616 110.768 24.7959 112.747 24.7959C113.36 24.7959 113.98 24.6794 114.412 24.4621L114.553 24.8192L114.546 24.8347Z" fill="#0086C5"/>
<path d="M116.501 22.9017L115.629 25.0909H115.15L117.687 18.8727H118.134L120.647 25.0909H120.168L119.281 22.9017H116.485H116.501ZM119.14 22.5213L118.252 20.3321C118.079 19.9207 118.001 19.649 117.907 19.3462H117.891C117.797 19.6568 117.687 19.9362 117.545 20.3088L116.65 22.5213H119.14Z" fill="#0086C5"/>
<path d="M127.157 21.9935H124.354V24.7028H127.472V25.0832H123.898V18.865H127.315V19.2454H124.354V21.6209H127.157V21.9935Z" fill="#0086C5"/>
<path d="M51.8389 31.8138C52.3965 31.6974 53.1975 31.6353 53.9592 31.6353C55.145 31.6353 55.9068 31.8526 56.4408 32.3262C56.8727 32.7066 57.1162 33.281 57.1162 33.9331C57.1162 35.051 56.4015 35.7963 55.4984 36.099V36.1378C56.1581 36.363 56.5586 36.9685 56.7628 37.8457C57.0376 39.0257 57.2418 39.8408 57.4224 40.1746H56.2759C56.1345 39.9262 55.9461 39.2042 55.7026 38.1485C55.4435 36.9762 54.988 36.5415 53.9828 36.5027H52.9383V40.1746H51.8311V31.8138H51.8389ZM52.9462 35.672H54.077C55.2628 35.672 56.0089 35.0277 56.0089 34.0651C56.0089 32.9705 55.2079 32.4892 54.0378 32.4814C53.5038 32.4814 53.119 32.5358 52.9462 32.5823V35.6798V35.672Z" fill="#0086C5"/>
<path d="M63.1238 36.1998H59.7862V39.2585H63.5007V40.1745H58.679V31.6973H63.3123V32.6133H59.7862V35.2916H63.1238V36.1998Z" fill="#0086C5"/>
<path d="M66.3279 37.5118L65.4405 40.1745H64.2939L67.2074 31.6973H68.5424L71.4716 40.1745H70.2858L69.367 37.5118H66.3279ZM69.1393 36.6579L68.299 34.2203C68.1105 33.6691 67.977 33.1645 67.8514 32.6754H67.8278C67.7022 33.18 67.5608 33.6924 67.3959 34.2125L66.5556 36.6656H69.1393V36.6579Z" fill="#0086C5"/>
<path d="M72.7202 31.8138C73.2071 31.7129 73.9689 31.6353 74.7463 31.6353C75.8536 31.6353 76.5682 31.8216 77.1022 32.2485C77.5498 32.5746 77.8168 33.0792 77.8168 33.7468C77.8168 34.5619 77.2671 35.2839 76.364 35.6099V35.6332C77.1808 35.8351 78.131 36.5027 78.131 37.7603C78.131 38.49 77.8404 39.0412 77.4085 39.4604C76.8117 40.0038 75.8457 40.2523 74.44 40.2523C73.6783 40.2523 73.0893 40.1979 72.7202 40.1513V31.8138ZM73.8275 35.2839H74.8327C76.0028 35.2839 76.686 34.6784 76.686 33.8633C76.686 32.8696 75.9243 32.4814 74.8013 32.4814C74.2908 32.4814 74.0003 32.5202 73.8196 32.5591V35.2917L73.8275 35.2839ZM73.8275 39.344C74.0474 39.3828 74.3615 39.3983 74.7542 39.3983C75.9007 39.3983 76.953 38.9791 76.953 37.7526C76.953 36.5959 75.9478 36.1145 74.7385 36.1145H73.8196V39.344H73.8275Z" fill="#0086C5"/>
<path d="M80.7303 31.6973V40.1745H79.623V31.6973H80.7303Z" fill="#0086C5"/>
<path d="M82.6621 31.6973H83.7694V39.2508H87.4289V40.1668H82.6621V31.6896V31.6973Z" fill="#0086C5"/>
<path d="M89.7691 31.6973V40.1745H88.6619V31.6973H89.7691Z" fill="#0086C5"/>
<path d="M93.3267 32.6288H90.7195V31.6973H97.0648V32.6288H94.4418V40.1745H93.3188V32.6288H93.3267Z" fill="#0086C5"/>
<path d="M98.4546 37.5118L97.5672 40.1745H96.4207L99.3341 31.6973H100.669L103.591 40.1745H102.405L101.486 37.5118H98.4467H98.4546ZM101.266 36.6579L100.426 34.2203C100.237 33.6691 100.112 33.1645 99.9859 32.6754H99.9624C99.8367 33.18 99.6954 33.6924 99.5305 34.2125L98.6902 36.6656H101.274L101.266 36.6579Z" fill="#0086C5"/>
<path d="M110.658 39.8951C110.266 40.097 109.488 40.2833 108.42 40.2988L108.114 40.8034C108.585 40.8966 109.001 41.2304 109.001 41.7505C109.001 42.4802 108.357 42.7675 107.69 42.7675C107.36 42.7675 107.007 42.6821 106.787 42.5501L106.967 41.9834C107.156 42.0843 107.407 42.1464 107.666 42.1464C107.957 42.1464 108.216 42.03 108.216 41.7583C108.216 41.4322 107.823 41.2925 107.219 41.2304L107.753 40.26C105.664 40.0194 104.156 38.5677 104.156 36.0136C104.156 33.4596 105.97 31.5576 108.632 31.5576C109.7 31.5576 110.376 31.7827 110.666 31.938L110.399 32.8308C109.975 32.6289 109.378 32.4814 108.664 32.4814C106.653 32.4814 105.318 33.7546 105.318 35.9748C105.318 38.0475 106.528 39.3828 108.617 39.3828C109.292 39.3828 109.975 39.2431 110.423 39.0334L110.65 39.9029L110.658 39.8951Z" fill="#0086C5"/>
<path d="M113.54 37.5119L112.653 40.1746H111.506L114.42 31.6973H115.755L118.676 40.1746H117.49L116.579 37.5119H113.532H113.54ZM113.556 31.185C113.532 30.4164 113.862 29.9041 114.42 29.9041C114.703 29.9041 114.907 30.0128 115.174 30.1525C115.378 30.2689 115.582 30.3776 115.786 30.3776C115.975 30.3776 116.093 30.2922 116.124 29.8885H116.713C116.721 30.6804 116.446 31.1074 115.857 31.1074C115.59 31.1074 115.362 31.0064 115.079 30.8667C114.836 30.7425 114.663 30.626 114.483 30.626C114.278 30.626 114.176 30.8434 114.153 31.1772H113.556V31.185ZM116.352 36.6579L115.511 34.2203C115.323 33.6692 115.197 33.1646 115.064 32.6755H115.04C114.915 33.1801 114.773 33.6925 114.608 34.2126L113.768 36.6657H116.352V36.6579Z" fill="#0086C5"/>
<path d="M127.079 35.8506C127.079 38.7695 125.281 40.3144 123.098 40.3144C120.914 40.3144 119.242 38.5754 119.242 36.0136C119.242 33.3198 120.93 31.5576 123.223 31.5576C125.516 31.5576 127.079 33.3276 127.079 35.8428V35.8506ZM120.428 35.9903C120.428 37.7991 121.417 39.4216 123.168 39.4216C124.919 39.4216 125.917 37.8224 125.917 35.9049C125.917 34.2203 125.029 32.4581 123.184 32.4581C121.338 32.4581 120.435 34.135 120.435 35.9903H120.428Z" fill="#0086C5"/>
<path d="M89.8477 47.9686V50.5615H93.6093V47.9686H94.0412V53.8996H93.6093V50.9264H89.8477V53.8996H89.4158V47.9686H89.8477Z" fill="#0086C5"/>
<path d="M100.206 53.659C99.8683 53.822 99.1929 54.0006 98.3291 54.0006C96.7114 54.0006 95.1643 53.0224 95.1643 50.9574C95.1643 49.4126 96.3187 47.86 98.5725 47.86C99.4835 47.86 99.9861 48.0618 100.19 48.155L100.041 48.5121C99.6877 48.3335 99.1537 48.2171 98.5961 48.2171C96.6485 48.2171 95.6119 49.3893 95.6119 50.9885C95.6119 52.448 96.6014 53.6279 98.4862 53.6279C99.0751 53.6279 99.6641 53.5193 100.072 53.3097L100.206 53.6512V53.659Z" fill="#0086C5"/>
<path d="M101.674 47.9687H104.933V48.3258H102.114V50.6547H104.69V51.0118H102.114V53.8919H101.674V47.9609V47.9687Z" fill="#0086C5"/>
<path d="M111.53 51.0972C111.467 50.22 111.389 49.0788 111.389 48.4422H111.373C111.13 49.0788 110.855 49.762 110.47 50.6547L109.08 53.8919H108.75L107.454 50.7013C107.085 49.7775 106.803 49.0711 106.606 48.4422H106.591C106.567 49.1254 106.52 50.2122 106.441 51.1826L106.229 53.8919H105.797L106.276 47.9609H106.771L108.208 51.5009C108.507 52.2384 108.742 52.8517 108.923 53.3951H108.939C109.096 52.8905 109.339 52.2927 109.677 51.5087L111.192 47.9687H111.711L112.135 53.8997H111.711L111.522 51.0972H111.53Z" fill="#0086C5"/>
<path d="M113.941 47.9687V51.3922C113.941 52.9992 114.75 53.6435 115.747 53.6435C116.862 53.6435 117.648 52.9604 117.648 51.3922V47.9687H118.08V51.3534C118.08 53.2631 116.988 54.0006 115.716 54.0006C114.554 54.0006 113.501 53.333 113.501 51.3922V47.9609H113.941V47.9687Z" fill="#0086C5"/>
<path d="M119.446 53.201C119.839 53.4649 120.357 53.6435 120.93 53.6435C121.896 53.6435 122.485 53.1311 122.485 52.4014C122.485 51.726 122.14 51.3378 121.134 51.0196C119.933 50.6392 119.454 50.1579 119.454 49.3815C119.454 48.5121 120.208 47.86 121.315 47.86C121.951 47.86 122.422 48.0075 122.65 48.155L122.485 48.5121C122.312 48.4034 121.888 48.2093 121.299 48.2093C120.223 48.2093 119.886 48.8537 119.886 49.3117C119.886 49.9482 120.271 50.3053 121.236 50.6159C122.328 50.9652 122.917 51.3844 122.917 52.347C122.917 53.1622 122.312 53.9928 120.875 53.9928C120.31 53.9928 119.642 53.8143 119.273 53.5581L119.446 53.1932V53.201Z" fill="#0086C5"/>
<path d="M124.142 48.0308C124.527 47.9687 125.014 47.9221 125.564 47.9221C126.365 47.9221 126.938 48.1162 127.299 48.45C127.605 48.7295 127.778 49.1176 127.778 49.5989C127.778 50.1191 127.621 50.5227 127.315 50.8255C126.906 51.2525 126.215 51.4698 125.43 51.4698C125.116 51.4698 124.825 51.4621 124.574 51.3844V53.9074H124.134V48.0386L124.142 48.0308ZM124.582 50.9963C124.833 51.0739 125.155 51.105 125.485 51.105C126.679 51.105 127.346 50.5693 127.346 49.6533C127.346 48.6286 126.522 48.2792 125.556 48.2792C125.1 48.2792 124.755 48.3258 124.574 48.3569V50.9963H124.582Z" fill="#0086C5"/>
<path d="M133.33 39.6156H137.107V37.4652H137.555V40.0891H133.33V39.6156Z" fill="#0086C5"/>
<path d="M134.594 34.8103H137.547V35.2373L137.162 35.2062C137.453 35.3692 137.602 35.6798 137.602 36.1688C137.602 36.852 137.257 37.1936 136.566 37.1936H134.602V36.7666H136.566C136.833 36.7666 137.013 36.72 137.107 36.6346C137.202 36.5492 137.241 36.3784 137.241 36.1223C137.241 35.7807 137.17 35.5556 137.045 35.4313C136.911 35.2994 136.66 35.245 136.299 35.245H134.602V34.8181L134.594 34.8103Z" fill="#0086C5"/>
<path d="M136.487 32.132V31.7051H136.644C137.28 31.7051 137.594 32.1088 137.594 32.9316C137.594 33.4595 137.492 33.8089 137.296 33.9719C137.092 34.1427 136.683 34.2281 136.055 34.2281C135.466 34.2281 135.074 34.1427 134.861 33.9719C134.657 33.8011 134.547 33.4751 134.547 32.986C134.547 32.4969 134.618 32.1864 134.759 32.0156C134.901 31.8371 135.168 31.7517 135.553 31.7517V32.1786H135.474C135.246 32.1786 135.089 32.233 135.011 32.3494C134.932 32.4581 134.901 32.6832 134.901 33.017C134.901 33.3508 134.971 33.5449 135.113 33.6381C135.262 33.7312 135.584 33.7778 136.087 33.7778C136.589 33.7778 136.888 33.7235 137.021 33.6226C137.155 33.5216 137.217 33.2732 137.217 32.8851C137.217 32.559 137.178 32.3494 137.084 32.264C136.99 32.1786 136.793 32.132 136.464 32.132" fill="#0086C5"/>
<path d="M134.594 29.151L137.72 29.9816C138.16 30.0981 138.466 30.2301 138.631 30.3698C138.796 30.5095 138.874 30.7191 138.874 30.9753C138.874 31.0297 138.874 31.0995 138.859 31.1849H138.497C138.513 31.1228 138.521 31.0762 138.521 31.0374C138.537 30.8045 138.34 30.6337 137.956 30.5251L137.665 30.4397C137.665 30.4397 137.618 30.4319 137.555 30.4164V30.5794L134.602 31.6352V31.1772L135.922 30.7269L136.573 30.5018L136.903 30.3931L137.233 30.2766V30.2611L136.903 30.1835L136.573 30.1059L135.922 29.9428L134.602 29.6168V29.1588L134.594 29.151Z" fill="#0086C5"/>
<path d="M133.33 22.8707H137.555V23.3443H133.801H133.676V23.3598L133.77 23.3986C133.817 23.4219 133.856 23.4297 133.864 23.4374L134.06 23.5151L137.555 24.9357V25.4093L134.1 26.8377L133.911 26.923L133.817 26.9619C133.817 26.9619 133.762 26.9852 133.715 27.0007L133.825 27.0084H133.943H134.178H137.555V27.482H133.33V26.6669L136.063 25.549L136.503 25.3704L136.723 25.2773L136.935 25.1919L136.723 25.091C136.621 25.0521 136.542 25.0211 136.503 25.0056L136.063 24.827L133.33 23.7169V22.8863V22.8707Z" fill="#0086C5"/>
<path d="M134.555 21.0154C134.555 20.4797 134.649 20.1226 134.838 19.9673C135.026 19.8043 135.443 19.7267 136.079 19.7267C136.715 19.7267 137.123 19.8043 137.319 19.9673C137.508 20.1304 137.602 20.4797 137.602 21.0154C137.602 21.551 137.508 21.9003 137.319 22.0634C137.123 22.2264 136.715 22.304 136.079 22.304C135.443 22.304 135.034 22.2264 134.838 22.0634C134.649 21.9003 134.555 21.551 134.555 21.0154ZM134.916 21.0154C134.916 21.3957 134.979 21.6286 135.097 21.7218C135.223 21.8149 135.545 21.8538 136.071 21.8538C136.597 21.8538 136.919 21.8072 137.052 21.7218C137.178 21.6286 137.233 21.3957 137.233 21.0154C137.233 20.635 137.17 20.4021 137.052 20.3089C136.927 20.2158 136.605 20.1692 136.071 20.1692C135.537 20.1692 135.215 20.2158 135.097 20.3089C134.971 20.4021 134.916 20.635 134.916 21.0154Z" fill="#0086C5"/>
<path d="M134.594 19.1832V18.7718L134.995 18.7873V18.7718C134.704 18.6398 134.547 18.3215 134.547 17.8014C134.547 17.3822 134.618 17.1027 134.767 16.9552C134.916 16.8077 135.199 16.7301 135.623 16.7301H137.547V17.1571H135.545C135.293 17.1571 135.121 17.2037 135.034 17.2968C134.948 17.39 134.909 17.5763 134.909 17.848C134.909 18.4535 135.199 18.7485 135.765 18.7485H137.547V19.1755H134.594V19.1832Z" fill="#0086C5"/>
<path d="M134.595 14.5254H134.956V15.6511H136.762C137.076 15.6511 137.233 15.5113 137.233 15.2319C137.233 14.9524 137.092 14.8204 136.809 14.8204H136.66L136.495 14.8127V14.4167H136.715C137.296 14.4167 137.587 14.6885 137.587 15.2319C137.587 15.7753 137.343 16.078 136.864 16.078H134.948V16.4817H134.587V16.078H133.872V15.6511H134.587V14.5254H134.595Z" fill="#0086C5"/>
<path d="M134.555 12.9494C134.555 12.406 134.649 12.0567 134.838 11.9014C135.026 11.7384 135.443 11.6608 136.079 11.6608C136.715 11.6608 137.123 11.7384 137.319 11.9014C137.508 12.0644 137.602 12.4138 137.602 12.9494C137.602 13.4851 137.508 13.8344 137.319 13.9974C137.123 14.1605 136.715 14.2381 136.079 14.2381C135.443 14.2381 135.034 14.1605 134.838 13.9974C134.649 13.8344 134.555 13.4851 134.555 12.9494ZM134.916 12.9494C134.916 13.3298 134.979 13.5627 135.097 13.6559C135.223 13.749 135.545 13.7956 136.071 13.7956C136.597 13.7956 136.919 13.749 137.052 13.6559C137.178 13.5627 137.233 13.3298 137.233 12.9494C137.233 12.569 137.17 12.3362 137.052 12.243C136.927 12.1498 136.605 12.1033 136.071 12.1033C135.537 12.1033 135.215 12.1498 135.097 12.243C134.971 12.3362 134.916 12.569 134.916 12.9494Z" fill="#0086C5"/>
<path d="M134.594 11.0708V10.6438L134.932 10.6904H134.94C134.665 10.5118 134.524 10.2324 134.524 9.84422C134.524 9.30857 134.806 9.03687 135.364 9.03687H135.568V9.46383H135.497C135.419 9.44831 135.364 9.44831 135.34 9.44831C135.034 9.44831 134.885 9.61133 134.885 9.93738C134.885 10.4109 135.183 10.6516 135.78 10.6516H137.555V11.0786H134.602L134.594 11.0708Z" fill="#0086C5"/>
<path d="M134.555 7.53862C134.555 6.9952 134.649 6.64587 134.838 6.48284C135.026 6.31982 135.443 6.24219 136.079 6.24219C136.715 6.24219 137.123 6.32758 137.319 6.48284C137.508 6.64587 137.602 6.9952 137.602 7.53862C137.602 8.08203 137.508 8.42361 137.319 8.58663C137.123 8.74966 136.715 8.82729 136.079 8.82729C135.443 8.82729 135.034 8.74966 134.838 8.58663C134.649 8.42361 134.555 8.07427 134.555 7.53862ZM134.916 7.53862C134.916 7.91901 134.979 8.1519 135.097 8.24506C135.223 8.33822 135.545 8.38479 136.071 8.38479C136.597 8.38479 136.919 8.33822 137.052 8.24506C137.178 8.1519 137.233 7.91901 137.233 7.53862C137.233 7.15823 137.17 6.91757 137.052 6.83218C136.927 6.74679 136.605 6.70021 136.071 6.70021C135.537 6.70021 135.215 6.74679 135.097 6.83218C134.971 6.92534 134.916 7.15823 134.916 7.53862Z" fill="#0086C5"/>
<path d="M137.539 54.3421H133.157V52.2772C133.157 51.8114 133.251 51.4853 133.432 51.2913C133.621 51.0972 133.943 51.004 134.406 51.004C134.814 51.004 135.089 51.0506 135.254 51.1593C135.419 51.268 135.513 51.4621 135.568 51.757H135.576C135.615 51.299 135.89 51.0661 136.424 51.0661H137.547V51.5552H136.542C136.031 51.5552 135.772 51.7726 135.772 52.2151V53.8531H137.547V54.3421H137.539ZM135.34 53.8531V52.4402C135.34 52.0676 135.285 51.8114 135.168 51.6717C135.05 51.5397 134.838 51.4698 134.524 51.4698C134.123 51.4698 133.864 51.5242 133.746 51.6251C133.628 51.726 133.566 51.9434 133.566 52.2694V53.8531H135.34Z" fill="#0086C5"/>
<path d="M136.613 48.4578V47.9998H136.723C137.045 47.9998 137.264 48.0929 137.39 48.287C137.516 48.4811 137.579 48.8149 137.579 49.2962C137.579 49.8551 137.477 50.2278 137.264 50.3985C137.06 50.5771 136.621 50.6625 135.961 50.6625C135.348 50.6625 134.94 50.5771 134.728 50.3985C134.516 50.22 134.414 49.8784 134.414 49.3661C134.414 48.8071 134.508 48.4345 134.689 48.2637C134.877 48.0929 135.254 47.9998 135.843 47.9998H136.079V50.1889C136.566 50.1889 136.872 50.1424 137.005 50.0337C137.139 49.9328 137.202 49.6921 137.202 49.3195C137.202 48.9468 137.17 48.7295 137.107 48.6208C137.045 48.5121 136.911 48.4578 136.699 48.4578H136.597H136.613ZM135.733 48.4578H135.592C135.262 48.4578 135.042 48.5199 134.948 48.6208C134.846 48.7295 134.799 48.9624 134.799 49.3195C134.799 49.6766 134.861 49.9095 134.971 50.0182C135.089 50.1268 135.348 50.1812 135.741 50.1812V48.4578H135.733Z" fill="#0086C5"/>
<path d="M133.149 45.0187H137.531V45.4689L137.131 45.4456V45.4612C137.421 45.6009 137.571 45.927 137.571 46.4393C137.571 46.9051 137.453 47.2234 137.225 47.3942C136.997 47.565 136.573 47.6504 135.945 47.6504C135.372 47.6504 134.963 47.565 134.744 47.3942C134.524 47.2234 134.406 46.9129 134.406 46.4704C134.406 45.9192 134.555 45.5854 134.846 45.4845L133.149 45.4767V45.0264V45.0187ZM134.791 46.3539C134.791 46.6877 134.869 46.9051 135.018 47.0138C135.175 47.1225 135.482 47.1768 135.953 47.1768C136.463 47.1768 136.801 47.1225 136.966 47.0215C137.123 46.9129 137.209 46.6877 137.209 46.3539C137.209 45.9891 137.131 45.7484 136.966 45.6397C136.801 45.531 136.448 45.4767 135.914 45.4767C135.474 45.4767 135.176 45.5388 135.026 45.663C134.877 45.7872 134.799 46.0201 134.799 46.3694" fill="#0086C5"/>
<path d="M136.613 42.3871V41.9291H136.723C137.045 41.9291 137.264 42.0222 137.39 42.2163C137.516 42.4026 137.579 42.7442 137.579 43.2255C137.579 43.7845 137.477 44.1493 137.264 44.3279C137.06 44.4987 136.621 44.5918 135.961 44.5918C135.348 44.5918 134.94 44.5064 134.728 44.3279C134.516 44.1493 134.414 43.8077 134.414 43.2954C134.414 42.7364 134.508 42.3716 134.689 42.2008C134.877 42.0222 135.254 41.9368 135.843 41.9368H136.079V44.126C136.566 44.126 136.872 44.0717 137.005 43.9708C137.139 43.8698 137.202 43.6292 137.202 43.2566C137.202 42.8839 137.17 42.6588 137.107 42.5579C137.045 42.4492 136.911 42.4026 136.699 42.4026H136.597L136.613 42.3871ZM135.733 42.3871H135.592C135.262 42.3871 135.042 42.4414 134.948 42.5501C134.846 42.6666 134.799 42.8917 134.799 43.2566C134.799 43.6214 134.861 43.8466 134.971 43.9552C135.089 44.0639 135.348 44.1183 135.741 44.1183V42.3949L135.733 42.3871Z" fill="#0086C5"/>
</g>
<defs>
<clipPath id="clip0_327_233">
<rect width="139" height="59" fill="white"/>
</clipPath>
</defs>
</svg>
