<svg width="17" height="16" viewBox="0 0 17 16" fill="none" xmlns="http://www.w3.org/2000/svg">
<path fill-rule="evenodd" clip-rule="evenodd" d="M2.08891 0H5.08198C5.20371 0 5.32254 0.0351828 5.42263 0.100854C5.52271 0.166526 5.59929 0.259563 5.64213 0.367552L6.80393 3.29435C6.84223 3.39114 6.85188 3.49601 6.83186 3.59762L6.24937 6.55618C6.96512 8.15042 8.14687 9.22207 10.1058 10.1833L13.1898 9.61609C13.2994 9.59607 13.4128 9.6055 13.517 9.64331L16.6146 10.7626C16.7278 10.8035 16.8253 10.876 16.8941 10.9705C16.9629 11.0651 16.9999 11.1772 17 11.292V14.0025C17 15.2322 15.8574 16.2297 14.52 15.9537C12.0839 15.4515 7.56996 14.1742 4.40852 11.1778C1.37954 8.30773 0.364565 4.34331 0.0238453 2.20077C-0.17165 0.977112 0.863277 0 2.08891 0Z" fill="white"/>
</svg>
